<mxfile host="Electron" agent="Mozilla/5.0 (Windows NT 10.0; Win64; x64) AppleWebKit/537.36 (KHTML, like Gecko) draw.io/24.7.17 Chrome/128.0.6613.36 Electron/32.0.1 Safari/537.36" version="24.7.17">
  <diagram name="Page-1" id="DIv55mowt9vyP366NqKJ">
    <mxGraphModel dx="1322" dy="684" grid="1" gridSize="10" guides="1" tooltips="1" connect="1" arrows="1" fold="1" page="1" pageScale="1" pageWidth="850" pageHeight="1100" math="0" shadow="0">
      <root>
        <mxCell id="0" />
        <mxCell id="1" parent="0" />
        <mxCell id="svvAAIZAqVOUW5v2XLoo-1" value="Banner" style="rounded=1;arcSize=10;whiteSpace=wrap;html=1;align=center;" parent="1" vertex="1">
          <mxGeometry x="390" y="360" width="100" height="40" as="geometry" />
        </mxCell>
        <mxCell id="svvAAIZAqVOUW5v2XLoo-2" value="Image" style="ellipse;whiteSpace=wrap;html=1;align=center;" parent="1" vertex="1">
          <mxGeometry x="280" y="280" width="100" height="40" as="geometry" />
        </mxCell>
        <mxCell id="svvAAIZAqVOUW5v2XLoo-3" value="Link" style="ellipse;whiteSpace=wrap;html=1;align=center;" parent="1" vertex="1">
          <mxGeometry x="390" y="280" width="100" height="40" as="geometry" />
        </mxCell>
        <mxCell id="svvAAIZAqVOUW5v2XLoo-4" value="IsActive" style="ellipse;whiteSpace=wrap;html=1;align=center;" parent="1" vertex="1">
          <mxGeometry x="500" y="280" width="100" height="40" as="geometry" />
        </mxCell>
        <mxCell id="svvAAIZAqVOUW5v2XLoo-5" value="" style="endArrow=none;html=1;rounded=0;" parent="1" source="svvAAIZAqVOUW5v2XLoo-2" target="svvAAIZAqVOUW5v2XLoo-1" edge="1">
          <mxGeometry relative="1" as="geometry">
            <mxPoint x="300" y="390" as="sourcePoint" />
            <mxPoint x="440" y="380" as="targetPoint" />
          </mxGeometry>
        </mxCell>
        <mxCell id="svvAAIZAqVOUW5v2XLoo-6" value="" style="endArrow=none;html=1;rounded=0;" parent="1" source="svvAAIZAqVOUW5v2XLoo-3" target="svvAAIZAqVOUW5v2XLoo-1" edge="1">
          <mxGeometry relative="1" as="geometry">
            <mxPoint x="347" y="327" as="sourcePoint" />
            <mxPoint x="418" y="370" as="targetPoint" />
          </mxGeometry>
        </mxCell>
        <mxCell id="svvAAIZAqVOUW5v2XLoo-7" value="" style="endArrow=none;html=1;rounded=0;" parent="1" source="svvAAIZAqVOUW5v2XLoo-4" target="svvAAIZAqVOUW5v2XLoo-1" edge="1">
          <mxGeometry relative="1" as="geometry">
            <mxPoint x="439" y="330" as="sourcePoint" />
            <mxPoint x="446" y="370" as="targetPoint" />
          </mxGeometry>
        </mxCell>
        <mxCell id="fycQRPJiycKgPp0C0QKG-1" value="Store" style="ellipse;whiteSpace=wrap;html=1;align=center;" vertex="1" parent="1">
          <mxGeometry x="610" y="280" width="100" height="40" as="geometry" />
        </mxCell>
        <mxCell id="fycQRPJiycKgPp0C0QKG-2" value="" style="endArrow=none;html=1;rounded=0;" edge="1" parent="1" source="svvAAIZAqVOUW5v2XLoo-1" target="fycQRPJiycKgPp0C0QKG-1">
          <mxGeometry relative="1" as="geometry">
            <mxPoint x="500" y="430" as="sourcePoint" />
            <mxPoint x="660" y="430" as="targetPoint" />
          </mxGeometry>
        </mxCell>
      </root>
    </mxGraphModel>
  </diagram>
</mxfile>
